:SAMPLES-PER-SECOND 30
:FULLY-SPECIFIED
:DEGREES
257
root  67.1958 40.261 -24.0929 -3.46701 -0.248444 -0.0486145
RightUpLeg  4.55796 -9.71387 -6.30664
RightLeg  8.44449 -11.5677 1.96254
RightFoot  -6.94036 -0.065919 0.482566
RightToes  0.00048216 0.542163 -0.142577
Spine  4.66248 0.0335822 0.116036
Spine1  4.56145 0.135662 0.0487571
HEad  30.7489 5.29278 -2.88812
LeftShoulder1  7.89659 -11.5287 -45.7979
LeftArm  -5.82222 22.5314 -26.2567
LeftForeArm  20.8699 -25.108 -4.27196
LeftHand  -0.25398 0.0180481 5.50724
RightShoulder  3.62205 5.84557 32.7926
RightArm  -3.82801 -15.8772 36.4405
RightForeArm  4.24084 28.2404 5.88149
RightHand  -1.09649 2.81402 -15.7053
LeftUpLeg  6.08161 3.93017 -3.88708
LeftLeg  3.62589 30.3282 -1.96295
LeftFoot  -7.46668 -0.079193 3.66539
LeftToes  1.06248e-005 4.65856e-005 -8.18499e-006
258
root  67.1671 40.2039 -24.0939 -3.41768 0.147369 0.0928955
RightUpLeg  3.68535 -11.0778 -6.39072
RightLeg  10.3297 -10.7164 1.19108
RightFoot  -7.75445 -0.0759479 0.763147
RightToes  0.00048216 0.542163 -0.142577
Spine  5.10938 -0.0113251 -0.805044
Spine1  4.70877 -0.142783 0.755992
HEad  30.8119 5.04785 -2.80984
LeftShoulder1  7.96548 -11.5774 -46.0567
LeftArm  -5.79415 21.685 -26.2293
LeftForeArm  21.5195 -25.5923 -4.34274
LeftHand  -0.25398 0.0180481 5.50724
RightShoulder  3.71818 6.09006 32.8077
RightArm  -3.21339 -15.3808 36.83
RightForeArm  5.86023 28.8108 5.92969
RightHand  -1.02602 2.40191 -15.4596
LeftUpLeg  5.258 4.07154 -3.90634
LeftLeg  5.53155 29.6295 -1.07869
LeftFoot  -8.10911 -0.0358884 2.99368
LeftToes  1.06248e-005 4.65856e-005 -8.18499e-006
259
root  67.1375 40.1153 -24.1155 -3.31558 0.125351 0.50087
RightUpLeg  1.71312 -14.1064 -6.50329
RightLeg  13.8158 -7.5662 -0.443974
RightFoot  -8.55139 -0.101726 1.81381
RightToes  0.00048216 0.542163 -0.142577
Spine  5.93744 0.114433 -1.84755
Spine1  4.4995 -0.173154 0.863245
HEad  30.73 4.92312 -2.71162
LeftShoulder1  8.00396 -11.6669 -46.0053
LeftArm  -5.5636 20.799 -26.1274
LeftForeArm  21.8241 -25.451 -4.29607
LeftHand  -0.25398 0.0180481 5.50724
RightShoulder  3.79825 6.23562 33.0514
RightArm  -2.53726 -14.8045 37.0652
RightForeArm  6.81362 28.9484 5.9105
RightHand  -0.977424 2.10421 -15.3003
LeftUpLeg  3.84151 4.44354 -4.17321
LeftLeg  8.52538 29.4549 0.229228
LeftFoot  -8.7408 0.00328726 2.13972
LeftToes  1.06248e-005 4.65856e-005 -8.18499e-006
260
root  67.1151 40.0393 -24.1727 -3.21481 -0.610245 1.44061
RightUpLeg  -1.72914 -15.2201 -6.72589
RightLeg  19.2524 -5.69644 -2.6105
RightFoot  -8.41648 -0.149197 3.52597
RightToes  0.00048216 0.542163 -0.142577
Spine  7.4013 0.526141 -3.2166
Spine1  3.8575 0.149205 0.230903
HEad  30.4007 4.90984 -2.65429
LeftShoulder1  8.02835 -11.7758 -45.8112
LeftArm  -5.26795 19.8635 -25.8555
LeftForeArm  21.7662 -24.8599 -4.16646
LeftHand  -0.25398 0.0180481 5.50724
RightShoulder  3.84632 6.28772 33.3337
RightArm  -1.89309 -14.1267 37.2899
RightForeArm  7.2426 28.8032 5.85208
RightHand  -0.971209 2.03827 -15.3326
LeftUpLeg  1.49396 5.01317 -4.96395
LeftLeg  13.2585 30.2152 2.39689
LeftFoot  -8.53741 0.0377887 0.595019
LeftToes  1.06248e-005 4.65856e-005 -8.18499e-006
261
root  67.0919 40.0096 -24.2472 -3.33531 -1.78079 2.96736
RightUpLeg  -6.01409 -11.889 -7.7309
RightLeg  26.3154 -8.10504 -4.55961
RightFoot  -6.69503 -0.237623 4.73791
RightToes  0.00048216 0.542163 -0.142577
Spine  9.46042 1.12268 -5.19063
Spine1  3.26482 0.61446 -0.829775
HEad  29.6936 4.84596 -2.69269
LeftShoulder1  8.11805 -11.9411 -45.8285
LeftArm  -5.06943 18.5782 -25.2764
LeftForeArm  21.1503 -23.5784 -3.95796
LeftHand  -0.25398 0.0180481 5.50724
RightShoulder  3.92902 6.42759 33.6114
RightArm  -1.33647 -13.2109 37.4206
RightForeArm  7.23797 28.3389 5.74189
RightHand  -1.00709 2.209 -15.5457
LeftUpLeg  -1.57237 5.66458 -6.28735
LeftLeg  19.6805 31.3479 5.70137
LeftFoot  -6.62189 0.125856 -1.96081
LeftToes  1.06248e-005 4.65856e-005 -8.18499e-006
262
root  67.0594 40.0358 -24.2941 -3.72437 -2.71114 4.49687
RightUpLeg  -9.96086 -10.371 -8.8957
RightLeg  32.5586 -8.71527 -6.15983
RightFoot  -3.98273 -0.322756 4.63198
RightToes  0.00048216 0.542163 -0.142577
Spine  11.742 1.5868 -7.14639
Spine1  3.18151 0.919246 -1.8978
HEad  28.5788 4.78373 -2.92321
LeftShoulder1  8.32315 -12.225 -46.1496
LeftArm  -5.0377 16.7072 -24.2508
LeftForeArm  20.0312 -21.1776 -3.93684
LeftHand  -0.25398 0.0180481 5.50724
RightShoulder  4.08873 6.72714 34.0113
RightArm  -0.563148 -11.8846 37.2749
RightForeArm  6.69284 27.228 5.51168
RightHand  -1.06389 2.50734 -15.8124
LeftUpLeg  -4.43285 6.25899 -7.58987
LeftLeg  25.9256 32.3861 9.45597
LeftFoot  -3.06757 0.345415 -4.51418
LeftToes  1.06248e-005 4.65856e-005 -8.18499e-006
263
root  67.0185 40.0889 -24.2855 -4.04095 -3.01402 5.30264
RightUpLeg  -12.9625 -10.4941 -9.19247
RightLeg  35.8301 -7.61937 -6.11109
RightFoot  -2.19748 -0.313419 3.71693
RightToes  0.00048216 0.542163 -0.142577
Spine  13.8927 1.68649 -8.10812
Spine1  3.47841 0.971306 -2.72352
HEad  27.287 4.94006 -3.36626
LeftShoulder1  8.63597 -12.6453 -46.6531
LeftArm  -5.48779 14.3573 -22.7671
LeftForeArm  19.3294 -17.6958 -4.56275
LeftHand  -0.25398 0.0180481 5.50724
RightShoulder  4.27611 7.06164 34.5158
RightArm  0.660305 -10.2233 36.8826
RightForeArm  5.62781 25.3222 5.12144
RightHand  -1.1013 2.73877 -15.9118
LeftUpLeg  -6.53568 6.67665 -8.34718
LeftLeg  30.3214 34.1829 13.1205
LeftFoot  0.830593 0.589543 -5.61069
LeftToes  1.06248e-005 4.65856e-005 -8.18499e-006
264
root  66.9832 40.1329 -24.232 -3.97116 -2.85559 5.17297
RightUpLeg  -15.0789 -11.6886 -8.21579
RightLeg  35.4239 -5.95 -4.78818
RightFoot  -2.04499 -0.285518 3.33968
RightToes  0.00048216 0.542163 -0.142577
Spine  15.9019 1.45208 -7.72957
Spine1  3.75534 0.899505 -3.18954
HEad  26.1239 5.33744 -3.77448
LeftShoulder1  9.02019 -13.1577 -47.2451
LeftArm  -6.5348 11.8208 -21.1696
LeftForeArm  19.6516 -13.7718 -5.57287
LeftHand  -0.25398 0.0180481 5.50724
RightShoulder  4.43061 7.33248 34.9251
RightArm  1.88129 -8.45342 36.4084
RightForeArm  4.51912 22.8669 4.7634
RightHand  -1.09941 2.81222 -15.7498
LeftUpLeg  -8.03805 6.75701 -8.55991
LeftLeg  33.0164 38.456 17.4209
LeftFoot  4.11022 0.630971 -4.84134
LeftToes  1.06248e-005 4.65856e-005 -8.18499e-006
265
root  66.9556 40.1203 -24.1571 -3.58487 -2.52895 4.52173
RightUpLeg  -16.5021 -13.121 -6.39253
RightLeg  31.9309 -5.63255 -3.98818
RightFoot  -2.35266 -0.322664 3.89477
RightToes  0.00048216 0.542163 -0.142577
Spine  17.9756 1.06042 -6.60986
Spine1  3.84984 0.797722 -3.29322
HEad  25.0356 5.79065 -3.92822
LeftShoulder1  9.39953 -13.6861 -47.7297
LeftArm  -7.94642 9.3883 -20.0569
LeftForeArm  20.5899 -10.2173 -6.19429
LeftHand  -0.25398 0.0180481 5.50724
RightShoulder  4.57687 7.62563 35.1587
RightArm  1.73198 -6.6472 35.853
RightForeArm  4.56873 20.1298 5.00256
RightHand  -1.08139 2.79553 -15.5291
LeftUpLeg  -9.37464 6.511 -8.69923
LeftLeg  36.2032 46.7335 24.4705
LeftFoot  6.91921 0.336752 -2.37386
LeftToes  1.06248e-005 4.65856e-005 -8.18499e-006
266
root  66.9225 40.0487 -24.0618 -3.0209 -2.06215 3.65257
RightUpLeg  -17.3781 -14.7141 -4.09156
RightLeg  26.3076 -7.34655 -4.15917
RightFoot  -1.96511 -0.355617 4.17601
RightToes  0.00048216 0.542163 -0.142577
Spine  20.1533 0.575663 -5.24351
Spine1  3.81025 0.585451 -2.98467
HEad  23.6045 6.12527 -4.07109
LeftShoulder1  9.67153 -14.1632 -47.7869
LeftArm  -9.14342 7.33885 -19.7724
LeftForeArm  21.1183 -7.77137 -6.11995
LeftHand  -0.25398 0.0180481 5.50724
RightShoulder  4.7756 8.05499 35.3472
RightArm  0.18516 -4.76949 35.1537
RightForeArm  5.68963 17.3811 5.72664
RightHand  -1.07924 2.77745 -15.5319
LeftUpLeg  -10.8191 6.05838 -8.96441
LeftLeg  46.6808 59.9311 40.6633
LeftFoot  9.64002 -0.598797 2.83836
LeftToes  1.06248e-005 4.65856e-005 -8.18499e-006
267
root  66.8667 39.9297 -23.9196 -2.16574 -1.4072 2.58701
RightUpLeg  -18.1642 -16.998 -1.38095
RightLeg  19.5903 -9.01407 -3.68298
RightFoot  -1.00533 -0.338455 3.6661
RightToes  0.00048216 0.542163 -0.142577
Spine  22.1203 0.0606316 -3.64746
Spine1  3.69722 0.191006 -2.17494
HEad  21.6387 6.18467 -4.54661
LeftShoulder1  9.83536 -14.5681 -47.5024
LeftArm  -9.93547 5.75463 -19.972
LeftForeArm  21.0419 -6.85719 -5.84048
LeftHand  -0.25398 0.0180481 5.50724
RightShoulder  5.01001 8.56409 35.544
RightArm  -1.61168 -2.89042 34.3776
RightForeArm  6.88252 15.058 6.39713
RightHand  -1.11183 2.85919 -15.8368
LeftUpLeg  -12.3579 5.22476 -8.8619
LeftLeg  86.3254 72.687 86.4481
LeftFoot  10.8682 -2.49589 12.4077
LeftToes  1.06248e-005 4.65856e-005 -8.18499e-006
268
root  66.7885 39.7664 -23.6959 -0.954147 -0.647888 1.69005
RightUpLeg  -18.9216 -16.7925 -0.0151557
RightLeg  13.0459 -11.2835 -1.1665
RightFoot  0.0744051 -0.34498 3.44699
RightToes  0.00048216 0.542163 -0.142577
Spine  23.5728 -0.271233 -2.11749
Spine1  3.67814 -0.267973 -0.992779
HEad  19.4059 5.78494 -5.20833
LeftShoulder1  10.0508 -14.9418 -47.559
LeftArm  -10.3733 4.22618 -19.9234
LeftForeArm  20.8564 -7.31505 -5.8181
LeftHand  -0.25398 0.0180481 5.50724
RightShoulder  5.20201 9.01785 35.5734
RightArm  -2.96748 -1.09991 33.6748
RightForeArm  7.49308 13.5531 6.77384
RightHand  -1.19803 3.19662 -16.3912
LeftUpLeg  -13.4256 4.25558 -8.0391
LeftLeg  147.476 68.9113 151.209
LeftFoot  8.71163 -4.75196 26.2287
LeftToes  1.06248e-005 4.65856e-005 -8.18499e-006
269
root  66.7151 39.4708 -23.3734 0.253754 0.0611572 1.12347
RightUpLeg  -19.9017 -9.76701 -1.77944
RightLeg  9.57141 -18.058 1.99616
RightFoot  0.938046 -0.400243 3.78408
RightToes  0.00048216 0.542163 -0.142577
Spine  24.7453 -0.322043 -0.372771
Spine1  4.03355 -0.639841 0.279981
HEad  17.1226 4.82729 -5.6453
LeftShoulder1  10.4371 -15.3507 -48.3251
LeftArm  -10.445 2.08924 -19.3664
LeftForeArm  20.828 -8.46971 -5.97979
LeftHand  -0.25398 0.0180481 5.50724
RightShoulder  5.31773 9.38182 35.3031
RightArm  -3.86525 0.691131 33.1397
RightForeArm  7.22793 12.8051 6.94097
RightHand  -1.34651 3.82575 -17.1654
LeftUpLeg  -13.3452 3.49629 -6.713
LeftLeg  169.777 59.1312 173.627
LeftFoot  5.00927 -7.45566 48.4899
LeftToes  1.06248e-005 4.65856e-005 -8.18499e-006
